<svg width="156" height="25" viewBox="0 0 156 25" fill="none" xmlns="http://www.w3.org/2000/svg">
<g clip-path="url(#clip0_7_28)">
<path d="M24.1249 12.6259C24.1249 19.0689 18.9595 24.2923 12.5876 24.2923C6.21561 24.2923 1.05066 19.0705 1.05066 12.6259C1.05066 6.18134 6.216 0.95996 12.5876 0.95996C18.9591 0.95996 24.1249 6.18291 24.1249 12.6259ZM36.7814 12.6259C36.7814 18.6912 34.1985 23.6077 31.0128 23.6077C27.827 23.6077 25.2441 18.6897 25.2441 12.6259C25.2441 6.56219 27.827 1.64416 31.0128 1.64416C34.1985 1.64416 36.7814 6.56219 36.7814 12.6259ZM41.9581 12.6259C41.9581 18.0602 41.0496 22.4651 39.9292 22.4651C38.8088 22.4651 37.9003 18.0586 37.9003 12.6259C37.9003 7.19327 38.8088 2.78671 39.9296 2.78671C41.0504 2.78671 41.9581 7.19209 41.9581 12.6259ZM73.7991 1.9715L73.8312 1.96442V1.71458H67.27L61.1778 16.0949L55.0855 1.71458H48.0151V1.96442L48.0468 1.9715C49.2444 2.24298 49.8524 2.64783 49.8524 4.1079V21.201C49.8524 22.6611 49.2421 23.0659 48.0445 23.3374L48.0127 23.3445V23.5951H52.8098V23.3453L52.7781 23.3382C51.5805 23.0667 50.9725 22.6619 50.9725 21.2018V5.09937L58.7986 23.5951H59.2425L67.2967 4.58357V21.624C67.194 22.7771 66.5915 23.1332 65.5071 23.3791L65.475 23.3866V23.6345H73.8312V23.3866L73.7991 23.3791C72.7135 23.1332 72.0965 22.7771 71.9938 21.624L71.9884 4.1079H71.9938C71.9938 2.64783 72.6019 2.24298 73.7991 1.9715ZM77.616 13.2948C77.7527 10.2236 78.8508 8.00691 80.6936 7.96875C81.2621 7.97819 81.7388 8.16547 82.1094 8.52586C82.8969 9.29347 83.2671 10.8975 83.2099 13.2948H77.616ZM77.5333 14.1604H87.3273V14.119C87.2995 11.7706 86.6221 9.94383 85.316 8.68953C84.1869 7.6056 82.5153 7.00914 80.7594 7.00914H80.7203C79.809 7.00914 78.6914 7.23104 77.8961 7.63314C76.9907 8.05413 76.1923 8.68363 75.5279 9.50986C74.4584 10.8409 73.8104 12.6397 73.6529 14.6612C73.6479 14.7218 73.6435 14.7824 73.6392 14.843C73.6349 14.9036 73.6322 14.9579 73.6294 15.0157C73.6155 15.2999 73.6108 15.5845 73.6153 15.8691C73.7215 20.4476 76.1841 24.1066 80.5581 24.1066C84.3973 24.1066 86.6331 21.288 87.1906 17.5046L86.9089 17.4051C85.9295 19.4384 84.1705 20.6707 82.1686 20.5204C79.4357 20.315 77.3421 17.5322 77.5321 14.1611M98.4007 20.3649C98.0795 21.1302 97.4092 21.5512 96.5109 21.5512C95.6126 21.5512 94.7915 20.9319 94.2081 19.8067C93.5813 18.5988 93.2515 16.8912 93.2515 14.8686C93.2515 10.6587 94.5552 7.9357 96.5732 7.9357C97.4182 7.9357 98.0834 8.35668 98.4007 9.09124V20.3649ZM104.898 23.3661C103.7 23.0817 103.092 22.6579 103.092 21.1235V0.707764L95.8159 2.86068V3.12429L95.8606 3.12075C96.8643 3.0393 97.5451 3.17858 97.9404 3.54527C98.2499 3.83249 98.4007 4.27314 98.4007 4.89321V7.69216C97.6834 7.23222 96.8302 7.00835 95.7948 7.00835C93.6949 7.00835 91.7757 7.89635 90.3916 9.50908C88.9488 11.1899 88.186 13.4868 88.186 16.1508C88.1856 20.9087 90.5178 24.1066 93.9887 24.1066C96.0192 24.1066 97.6529 22.9892 98.4007 21.1046V23.6345H104.929V23.3724L104.898 23.3661ZM111.138 3.48429C111.138 1.99865 110.023 0.878124 108.543 0.878124C107.07 0.878124 105.918 2.02304 105.918 3.48429C105.918 4.94553 107.072 6.09045 108.543 6.09045C110.023 6.09045 111.138 4.96993 111.138 3.48429ZM112.855 23.3661C111.658 23.0817 111.05 22.6579 111.05 21.1235H111.045V7.05675L104.516 8.93937V9.19511L104.555 9.19865C105.968 9.32494 106.354 9.8136 106.354 11.4716V23.6345H112.889V23.3724L112.855 23.3661ZM129.586 23.3661C128.388 23.0817 127.78 22.6579 127.78 21.1235V7.05675L121.563 8.87721V9.13373L121.6 9.13767C122.755 9.25963 123.089 9.77622 123.089 11.4417V20.3335C122.704 21.0987 121.981 21.5531 121.106 21.5838C119.687 21.5838 118.905 20.6211 118.905 18.873V7.05714L112.376 8.93976V9.19511L112.416 9.19865C113.828 9.32455 114.215 9.81321 114.215 11.4716V18.9969C114.212 19.5223 114.257 20.0468 114.351 20.5636L114.469 21.0771C115.021 23.0663 116.47 24.1066 118.739 24.1066C120.661 24.1066 122.345 22.9117 123.087 21.0421V23.6388H129.616V23.3767L129.586 23.3661ZM154.949 23.6345V23.372L154.917 23.3646C153.618 23.0636 153.112 22.4962 153.112 21.3411V11.7726C153.112 8.78908 151.443 7.00835 148.648 7.00835C146.611 7.00835 144.893 8.19065 144.232 10.0324C143.707 8.08088 142.195 7.00835 139.96 7.00835C137.996 7.00835 136.457 8.04901 135.797 9.80691V7.05793L129.268 8.86344V9.12075L129.307 9.12429C130.703 9.24862 131.107 9.75144 131.107 11.3669V23.6345H137.199V23.3724L137.166 23.3646C136.13 23.1198 135.795 22.6737 135.795 21.5287V10.5611C136.07 9.91786 136.622 9.15576 137.715 9.15576C139.072 9.15576 139.76 10.1 139.76 11.9602V23.6345H145.853V23.3724L145.821 23.3646C144.785 23.1198 144.45 22.6737 144.45 21.5287V11.7714C144.453 11.4065 144.424 11.0422 144.364 10.6823C144.654 9.98317 145.239 9.15576 146.376 9.15576C147.753 9.15576 148.421 10.0729 148.421 11.9602V23.6345H154.949Z" fill="black"/>
</g>
<defs>
<clipPath id="clip0_7_28">
<rect width="154.353" height="24" fill="white" transform="translate(0.823486 0.5)"/>
</clipPath>
</defs>
</svg>
