<?xml version="1.0" encoding="UTF-8"?>
<svg id="Elementos" xmlns="http://www.w3.org/2000/svg" viewBox="0 0 690.53 230.88">
  <defs>
    <style>
      .cls-1 {
        fill: #1d1d1b;
      }
    </style>
  </defs>
  <g>
    <path class="cls-1" d="M180,118.07h-36v-36c0-9.94,4.03-18.94,10.54-25.46,6.52-6.51,15.52-10.54,25.46-10.54s18.94,4.03,25.46,10.54c6.51,6.52,10.54,15.52,10.54,25.46s-4.03,18.94-10.54,25.46c-6.52,6.51-15.52,10.54-25.46,10.54Z"/>
    <path class="cls-1" d="M72,118.07h72v72c-9.94,0-18.94-4.03-25.46-10.54-6.51-6.52-10.54-15.52-10.54-25.46-9.94,0-18.94-4.03-25.46-10.54-6.51-6.52-10.54-15.52-10.54-25.46Z"/>
    <polygon class="cls-1" points="144 82.07 144 118.07 108 118.07 72 82.07 72 46.07 108 46.07 144 82.07"/>
    <polygon class="cls-1" points="144 154.07 144 118.07 180 118.07 216 154.07 216 190.07 180 190.07 144 154.07"/>
  </g>
  <g>
    <path d="M283.92,155.67c-6.15,0-11.46-1.19-15.92-3.58-4.46-2.38-7.91-5.8-10.33-10.27-2.43-4.46-3.73-9.82-3.9-16.05-.09-1.3-.13-3.03-.13-5.2s.04-3.9.13-5.2c.17-6.24,1.47-11.59,3.9-16.05,2.43-4.46,5.87-7.89,10.33-10.27,4.46-2.38,9.77-3.58,15.92-3.58,5.03,0,9.34.7,12.94,2.08,3.6,1.39,6.56,3.17,8.9,5.33,2.34,2.17,4.1,4.51,5.27,7.02,1.17,2.51,1.8,4.9,1.89,7.15.08.87-.17,1.56-.78,2.08-.61.52-1.34.78-2.21.78h-6.24c-.87,0-1.52-.2-1.95-.58-.43-.39-.87-1.06-1.3-2.01-1.56-4.25-3.69-7.24-6.37-8.97-2.69-1.73-6.02-2.6-10.01-2.6-5.2,0-9.42,1.6-12.67,4.81-3.25,3.21-5,8.37-5.27,15.47-.09,3.12-.09,6.15,0,9.1.26,7.19,2.02,12.37,5.27,15.54,3.25,3.16,7.48,4.75,12.67,4.75,3.99,0,7.32-.87,10.01-2.6,2.69-1.73,4.81-4.72,6.37-8.97.43-.95.87-1.62,1.3-2.01.43-.39,1.08-.58,1.95-.58h6.24c.87,0,1.6.26,2.21.78.61.52.87,1.21.78,2.08-.09,1.82-.48,3.68-1.17,5.59-.69,1.91-1.8,3.83-3.32,5.79-1.52,1.95-3.4,3.68-5.65,5.2-2.25,1.52-4.96,2.73-8.12,3.64-3.16.91-6.74,1.37-10.73,1.37Z"/>
    <path d="M355.29,155.67c-8.93,0-16.03-2.75-21.32-8.25-5.29-5.5-8.19-13.02-8.71-22.55-.09-1.13-.13-2.58-.13-4.36s.04-3.23.13-4.35c.35-6.15,1.78-11.55,4.29-16.19,2.51-4.63,5.96-8.21,10.33-10.72,4.38-2.51,9.51-3.77,15.4-3.77,6.59,0,12.11,1.39,16.58,4.16,4.46,2.78,7.87,6.72,10.21,11.83,2.34,5.12,3.51,11.09,3.51,17.94v2.21c0,.95-.28,1.69-.84,2.21-.57.52-1.28.78-2.15.78h-44.98v1.17c.17,3.55.95,6.87,2.34,9.94,1.39,3.08,3.38,5.57,5.98,7.48,2.6,1.91,5.72,2.86,9.36,2.86,3.12,0,5.72-.47,7.8-1.43,2.08-.95,3.77-2.01,5.07-3.18,1.3-1.17,2.17-2.06,2.6-2.67.78-1.13,1.39-1.8,1.82-2.02.43-.21,1.12-.33,2.08-.33h6.24c.87,0,1.58.24,2.14.72.56.48.8,1.15.71,2.01-.09,1.3-.78,2.88-2.08,4.75-1.3,1.86-3.16,3.71-5.59,5.52-2.43,1.82-5.38,3.32-8.84,4.49-3.47,1.17-7.46,1.75-11.96,1.75ZM337.61,115.63h35.62v-.39c0-3.9-.71-7.37-2.14-10.4-1.43-3.03-3.49-5.44-6.18-7.21-2.69-1.78-5.89-2.67-9.62-2.67s-6.91.89-9.55,2.67c-2.65,1.78-4.66,4.18-6.04,7.21-1.39,3.04-2.08,6.5-2.08,10.4v.39Z"/>
    <path d="M424.58,155.67c-4.85,0-9.01-.61-12.48-1.82-3.47-1.21-6.28-2.69-8.45-4.42-2.17-1.73-3.79-3.46-4.88-5.2-1.08-1.73-1.67-3.12-1.76-4.16-.09-.95.22-1.69.91-2.21.69-.52,1.39-.78,2.08-.78h5.72c.52,0,.93.07,1.23.2.3.13.71.5,1.24,1.1,1.12,1.21,2.38,2.43,3.77,3.64,1.38,1.21,3.1,2.21,5.13,2.99,2.04.78,4.57,1.17,7.6,1.17,4.42,0,8.06-.84,10.92-2.53,2.86-1.69,4.29-4.18,4.29-7.48,0-2.17-.58-3.9-1.75-5.2-1.17-1.3-3.25-2.47-6.24-3.51-2.99-1.04-7.09-2.12-12.29-3.25-5.2-1.21-9.32-2.71-12.35-4.48-3.03-1.78-5.2-3.9-6.5-6.37-1.3-2.47-1.95-5.27-1.95-8.39s.95-6.3,2.86-9.29c1.91-2.99,4.7-5.44,8.38-7.34,3.68-1.91,8.3-2.86,13.84-2.86,4.51,0,8.36.57,11.57,1.69,3.21,1.13,5.85,2.54,7.93,4.22,2.08,1.69,3.64,3.36,4.68,5,1.04,1.65,1.6,3.04,1.69,4.16.08.87-.18,1.58-.78,2.15-.61.56-1.3.84-2.08.84h-5.46c-.61,0-1.11-.13-1.5-.39-.39-.26-.76-.56-1.1-.91-.87-1.12-1.88-2.25-3.05-3.38-1.17-1.13-2.69-2.06-4.55-2.79-1.87-.74-4.31-1.11-7.35-1.11-4.33,0-7.58.91-9.75,2.73-2.17,1.82-3.25,4.12-3.25,6.89,0,1.65.48,3.12,1.43,4.42.95,1.3,2.77,2.47,5.46,3.51,2.69,1.04,6.67,2.17,11.96,3.38,5.72,1.13,10.23,2.65,13.52,4.55,3.29,1.91,5.63,4.12,7.02,6.63,1.38,2.51,2.08,5.42,2.08,8.71,0,3.64-1.06,6.98-3.19,10.01-2.12,3.04-5.24,5.44-9.36,7.21-4.12,1.78-9.21,2.67-15.28,2.67Z"/>
    <path d="M469.43,74.16c-.87,0-1.58-.28-2.15-.84-.56-.56-.84-1.28-.84-2.15v-7.02c0-.87.28-1.58.84-2.15.56-.56,1.28-.84,2.15-.84h8.19c.87,0,1.58.28,2.14.84.56.56.85,1.28.85,2.15v7.02c0,.87-.28,1.58-.85,2.15-.56.56-1.28.84-2.14.84h-8.19ZM470.47,154.37c-.87,0-1.58-.28-2.14-.84-.56-.56-.84-1.28-.84-2.15v-61.62c0-.87.28-1.58.84-2.14s1.28-.84,2.14-.84h6.24c.87,0,1.56.28,2.08.84.52.56.78,1.28.78,2.14v61.62c0,.87-.26,1.58-.78,2.15-.52.56-1.21.84-2.08.84h-6.24Z"/>
    <path d="M523.64,155.67c-4.77,0-8.88-.84-12.35-2.54-3.47-1.69-6.31-3.99-8.51-6.89-2.21-2.9-3.86-6.22-4.94-9.95-1.08-3.72-1.71-7.67-1.89-11.83-.09-1.38-.13-2.68-.13-3.9s.04-2.51.13-3.9c.17-4.07.8-7.97,1.89-11.7,1.08-3.72,2.73-7.06,4.94-10.01,2.21-2.95,5.05-5.26,8.51-6.96,3.47-1.69,7.58-2.54,12.35-2.54,5.11,0,9.36.91,12.74,2.73s6.15,4.07,8.32,6.76v-29.9c0-.87.28-1.58.85-2.15s1.28-.84,2.14-.84h6.24c.87,0,1.58.28,2.14.84.56.56.85,1.28.85,2.15v86.32c0,.87-.28,1.58-.85,2.15-.56.56-1.28.84-2.14.84h-5.85c-.96,0-1.69-.28-2.21-.84-.52-.56-.78-1.28-.78-2.15v-5.46c-2.17,2.77-4.98,5.09-8.45,6.96-3.47,1.86-7.8,2.79-13,2.79ZM526.37,145.14c4.33,0,7.8-1,10.4-2.99,2.6-1.99,4.55-4.53,5.85-7.61,1.3-3.08,1.99-6.22,2.08-9.42.09-1.39.13-3.05.13-5s-.04-3.62-.13-5c-.09-3.03-.8-6.02-2.14-8.97-1.34-2.95-3.34-5.37-5.98-7.28-2.64-1.91-6.04-2.86-10.21-2.86-4.42,0-7.93.98-10.53,2.92-2.6,1.95-4.46,4.51-5.59,7.67-1.13,3.17-1.78,6.57-1.95,10.21-.09,2.51-.09,5.03,0,7.54.17,3.64.82,7.04,1.95,10.21,1.12,3.17,2.99,5.72,5.59,7.67s6.11,2.92,10.53,2.92Z"/>
    <path d="M595.13,155.67c-4.34,0-8.28-.87-11.83-2.6-3.55-1.73-6.42-4.07-8.58-7.02-2.17-2.95-3.25-6.28-3.25-10.01,0-5.98,2.42-10.75,7.28-14.3,4.85-3.55,11.18-5.89,18.98-7.02l19.37-2.73v-3.77c0-4.16-1.19-7.41-3.57-9.75-2.38-2.34-6.26-3.51-11.63-3.51-3.9,0-7.04.78-9.43,2.34-2.38,1.56-4.05,3.55-5,5.98-.52,1.3-1.43,1.95-2.73,1.95h-5.85c-.96,0-1.67-.28-2.15-.85-.48-.56-.72-1.23-.72-2.01,0-1.3.5-2.9,1.5-4.81.99-1.91,2.54-3.77,4.62-5.59,2.08-1.82,4.74-3.36,7.99-4.61,3.25-1.26,7.21-1.89,11.89-1.89,5.2,0,9.58.67,13.13,2.02,3.55,1.34,6.35,3.14,8.38,5.39,2.04,2.25,3.51,4.81,4.42,7.67.91,2.86,1.37,5.76,1.37,8.71v42.12c0,.87-.28,1.58-.85,2.15s-1.28.84-2.14.84h-5.98c-.95,0-1.69-.28-2.21-.84-.52-.56-.78-1.28-.78-2.15v-5.59c-1.13,1.56-2.65,3.1-4.55,4.62-1.91,1.52-4.29,2.77-7.15,3.77-2.86,1-6.37,1.5-10.53,1.5ZM597.86,145.92c3.55,0,6.8-.76,9.75-2.27,2.95-1.52,5.26-3.88,6.95-7.08,1.69-3.21,2.54-7.24,2.54-12.09v-3.64l-15.08,2.21c-6.15.87-10.79,2.32-13.91,4.36-3.12,2.04-4.68,4.61-4.68,7.73,0,2.43.71,4.44,2.15,6.04,1.43,1.61,3.25,2.79,5.46,3.58s4.48,1.17,6.83,1.17Z"/>
  </g>
</svg>